<svg xmlns="http://www.w3.org/2000/svg" viewBox="0 0 600 300">
  <defs>
    <linearGradient id="bg-RBREW" x1="0%" y1="0%" x2="0%" y2="100%">
      <stop offset="0%" style="stop-color:#f8f9fa"/>
      <stop offset="100%" style="stop-color:#e9ecef"/>
    </linearGradient>
  </defs>
  <rect width="600" height="300" fill="url(#bg-RBREW)"/>
  <text x="300" y="25" fill="#0D1B2A" font-family="Georgia, serif" font-size="14" text-anchor="middle" font-weight="bold">Royal Unibrew (RBREW.CO) · Nasdaq Copenhagen</text>
  <text x="300" y="42" fill="#888888" font-family="Arial" font-size="10" text-anchor="middle">1-års pris (okt 2025 – okt 2026)</text>
  
  <!-- Axes -->
  <line x1="70" y1="240" x2="530" y2="240" stroke="#333" stroke-width="1"/>
  <line x1="70" y1="50" x2="70" y2="240" stroke="#333" stroke-width="1"/>
  
  <!-- Y-axis labels (range DKK 395–655) -->
  <text x="62" y="244" fill="#888888" font-family="Arial" font-size="9" text-anchor="end">395</text>
  <line x1="70" y1="240" x2="530" y2="240" stroke="#444444" stroke-width="0.5" stroke-dasharray="2,4"/>
  <text x="62" y="192" fill="#888888" font-family="Arial" font-size="9" text-anchor="end">460</text>
  <line x1="70" y1="188" x2="530" y2="188" stroke="#444444" stroke-width="0.5" stroke-dasharray="2,4"/>
  <text x="62" y="144" fill="#888888" font-family="Arial" font-size="9" text-anchor="end">525</text>
  <line x1="70" y1="140" x2="530" y2="140" stroke="#444444" stroke-width="0.5" stroke-dasharray="2,4"/>
  <text x="62" y="96" fill="#888888" font-family="Arial" font-size="9" text-anchor="end">590</text>
  <line x1="70" y1="92" x2="530" y2="92" stroke="#444444" stroke-width="0.5" stroke-dasharray="2,4"/>
  <text x="62" y="54" fill="#888888" font-family="Arial" font-size="9" text-anchor="end">655</text>
  <line x1="70" y1="50" x2="530" y2="50" stroke="#444444" stroke-width="0.5" stroke-dasharray="2,4"/>
  
  <!-- X-axis labels -->
  <text x="70" y="260" fill="#888888" font-family="Arial" font-size="9" text-anchor="middle">Okt 25</text>
  <text x="185" y="260" fill="#888888" font-family="Arial" font-size="9" text-anchor="middle">Jan 26</text>
  <text x="300" y="260" fill="#888888" font-family="Arial" font-size="9" text-anchor="middle">Apr 26</text>
  <text x="415" y="260" fill="#888888" font-family="Arial" font-size="9" text-anchor="middle">Jul 26</text>
  <text x="530" y="260" fill="#888888" font-family="Arial" font-size="9" text-anchor="middle">Okt 26</text>
  
  <!-- 52w high line (dashed, gold) at DKK 653.5 -->
  <line x1="70" y1="53" x2="530" y2="53" stroke="#C9A227" stroke-width="1.5" stroke-dasharray="6,4" opacity="0.7"/>
  
  <!-- Invalidation line (dashed, red) at DKK 394.60 -->
  <line x1="70" y1="240" x2="530" y2="240" stroke="#ff6b6b" stroke-width="1.5" stroke-dasharray="6,4" opacity="0.7"/>
  <text x="535" y="244" fill="#ff6b6b" font-family="Arial" font-size="8">Inv: 395</text>
  
  <!-- Price line based on real data pattern -->
  <path d="M 70,180 L 90,170 L 110,140 L 130,100 L 150,75 L 170,55 L 190,58 L 210,100 L 230,120 L 250,135 L 270,240 L 290,225 L 310,205 L 330,190 L 350,175 L 370,140 L 390,155 L 410,185 L 430,200 L 450,205 L 470,200 L 490,210 L 510,225 L 530,220" fill="none" stroke="#0D1B2A" stroke-width="2" stroke-linejoin="round"/>
  
  <!-- 52w high marker (Feb 24) -->
  <circle cx="170" cy="55" r="5" fill="#C9A227"/>
  <text x="170" y="45" fill="#C9A227" font-family="Arial" font-size="9" text-anchor="middle">52w høj: DKK 653,50</text>
  
  <!-- PepsiCo drop (Apr 21) -->
  <circle cx="270" cy="240" r="4" fill="#ff6b6b"/>
  <text x="270" y="255" fill="#ff6b6b" font-family="Arial" font-size="8" text-anchor="middle">PepsiCo-nyt: −24%</text>
  
  <!-- Current price marker -->
  <circle cx="530" cy="220" r="5" fill="#40826D"/>
  <text x="490" y="210" fill="#40826D" font-family="Arial" font-size="9" text-anchor="end">Nu: DKK 405,40</text>
  
  <!-- Source -->
  <text x="300" y="290" fill="#888888" font-family="Arial" font-size="8" text-anchor="middle">Kilde: Yahoo Finance · −38,0% fra 52-ugers top · Tester april-bund</text>
</svg>
