<svg xmlns="http://www.w3.org/2000/svg" viewBox="0 0 600 300">
  <defs>
    <linearGradient id="bg-BKNG" x1="0%" y1="0%" x2="0%" y2="100%">
      <stop offset="0%" style="stop-color:#f8f9fa"/>
      <stop offset="100%" style="stop-color:#e9ecef"/>
    </linearGradient>
  </defs>
  <rect width="600" height="300" fill="url(#bg-BKNG)"/>
  <text x="300" y="25" fill="#0D1B2A" font-family="Georgia, serif" font-size="14" text-anchor="middle" font-weight="bold">Booking Holdings (BKNG) · NasdaqGS</text>
  <text x="300" y="42" fill="#888888" font-family="Arial" font-size="10" text-anchor="middle">1-års pris (okt 2025 – okt 2026, split-justeret)</text>
  
  <!-- Axes -->
  <line x1="70" y1="240" x2="530" y2="240" stroke="#333" stroke-width="1"/>
  <line x1="70" y1="50" x2="70" y2="240" stroke="#333" stroke-width="1"/>
  
  <!-- Y-axis labels (range $150–$225) -->
  <text x="62" y="244" fill="#888888" font-family="Arial" font-size="9" text-anchor="end">$150</text>
  <line x1="70" y1="240" x2="530" y2="240" stroke="#444444" stroke-width="0.5" stroke-dasharray="2,4"/>
  <text x="62" y="192" fill="#888888" font-family="Arial" font-size="9" text-anchor="end">$169</text>
  <line x1="70" y1="188" x2="530" y2="188" stroke="#444444" stroke-width="0.5" stroke-dasharray="2,4"/>
  <text x="62" y="144" fill="#888888" font-family="Arial" font-size="9" text-anchor="end">$187</text>
  <line x1="70" y1="140" x2="530" y2="140" stroke="#444444" stroke-width="0.5" stroke-dasharray="2,4"/>
  <text x="62" y="96" fill="#888888" font-family="Arial" font-size="9" text-anchor="end">$206</text>
  <line x1="70" y1="92" x2="530" y2="92" stroke="#444444" stroke-width="0.5" stroke-dasharray="2,4"/>
  <text x="62" y="54" fill="#888888" font-family="Arial" font-size="9" text-anchor="end">$225</text>
  <line x1="70" y1="50" x2="530" y2="50" stroke="#444444" stroke-width="0.5" stroke-dasharray="2,4"/>
  
  <!-- X-axis labels -->
  <text x="70" y="260" fill="#888888" font-family="Arial" font-size="9" text-anchor="middle">Okt 25</text>
  <text x="185" y="260" fill="#888888" font-family="Arial" font-size="9" text-anchor="middle">Jan 26</text>
  <text x="300" y="260" fill="#888888" font-family="Arial" font-size="9" text-anchor="middle">Apr 26</text>
  <text x="415" y="260" fill="#888888" font-family="Arial" font-size="9" text-anchor="middle">Jul 26</text>
  <text x="530" y="260" fill="#888888" font-family="Arial" font-size="9" text-anchor="middle">Okt 26</text>
  
  <!-- 52w high line (dashed, gold) at $224.99 -->
  <line x1="70" y1="50" x2="530" y2="50" stroke="#C9A227" stroke-width="1.5" stroke-dasharray="6,4" opacity="0.7"/>
  
  <!-- Invalidation line (dashed, red) at $154.13 -->
  <line x1="70" y1="227" x2="530" y2="227" stroke="#ff6b6b" stroke-width="1.5" stroke-dasharray="6,4" opacity="0.7"/>
  <text x="535" y="231" fill="#ff6b6b" font-family="Arial" font-size="8">Inv: $154</text>
  
  <!-- Price line based on real data pattern -->
  <path d="M 70,95 L 90,98 L 110,85 L 130,75 L 150,90 L 170,160 L 190,175 L 210,165 L 230,190 L 250,225 L 270,235 L 290,185 L 310,165 L 330,165 L 350,145 L 370,120 L 390,60 L 410,85 L 430,75 L 450,90 L 470,150 L 490,195 L 510,210 L 530,218" fill="none" stroke="#0D1B2A" stroke-width="2" stroke-linejoin="round"/>
  
  <!-- 52w high marker (Oct 6, 2025) -->
  <circle cx="70" cy="50" r="5" fill="#C9A227"/>
  <text x="100" y="45" fill="#C9A227" font-family="Arial" font-size="9">52w høj: $225</text>
  
  <!-- 52w low marker (May) -->
  <circle cx="270" cy="235" r="4" fill="#ff6b6b"/>
  <text x="270" y="250" fill="#ff6b6b" font-family="Arial" font-size="8" text-anchor="middle">Bund: $154</text>
  
  <!-- Current price marker -->
  <circle cx="530" cy="218" r="5" fill="#40826D"/>
  <text x="490" y="208" fill="#40826D" font-family="Arial" font-size="9" text-anchor="end">Nu: $159,02</text>
  
  <!-- Source -->
  <text x="300" y="290" fill="#888888" font-family="Arial" font-size="8" text-anchor="middle">Kilde: Yahoo Finance · −29,3% fra 52-ugers top · Kun 3% over støtte</text>
</svg>
