<svg xmlns="http://www.w3.org/2000/svg" viewBox="0 0 600 400">
  <defs>
    <linearGradient id="bg" x1="0%" y1="0%" x2="0%" y2="100%">
      <stop offset="0%" style="stop-color:#1B263B"/>
      <stop offset="100%" style="stop-color:#0D1B2A"/>
    </linearGradient>
  </defs>
  <rect width="600" height="400" fill="url(#bg)"/>
  
  <!-- Adobe logo stylized (letter A) -->
  <polygon points="300,60 360,180 330,180 300,120 270,180 240,180" fill="#FF0000" opacity="0.9"/>
  
  <text x="300" y="220" fill="#E0E1DD" font-family="Arial" font-size="20" text-anchor="middle" font-weight="bold">ADBE</text>
  <text x="300" y="245" fill="#C9A227" font-family="Arial" font-size="14" text-anchor="middle">$248,92 · 32,8% fra top</text>
  
  <!-- Key metrics boxes -->
  <g transform="translate(80, 270)">
    <rect x="0" y="0" width="100" height="50" fill="#415A77" rx="5"/>
    <text x="50" y="22" fill="#E0E1DD" font-family="Arial" font-size="10" text-anchor="middle">Trail P/E</text>
    <text x="50" y="40" fill="#C9A227" font-family="Arial" font-size="14" text-anchor="middle" font-weight="bold">15,0</text>
  </g>
  <g transform="translate(200, 270)">
    <rect x="0" y="0" width="100" height="50" fill="#415A77" rx="5"/>
    <text x="50" y="22" fill="#E0E1DD" font-family="Arial" font-size="10" text-anchor="middle">Fwd P/E</text>
    <text x="50" y="40" fill="#C9A227" font-family="Arial" font-size="14" text-anchor="middle" font-weight="bold">10,0</text>
  </g>
  <g transform="translate(320, 270)">
    <rect x="0" y="0" width="100" height="50" fill="#415A77" rx="5"/>
    <text x="50" y="22" fill="#E0E1DD" font-family="Arial" font-size="10" text-anchor="middle">P/B</text>
    <text x="50" y="40" fill="#C9A227" font-family="Arial" font-size="14" text-anchor="middle" font-weight="bold">8,9</text>
  </g>
  <g transform="translate(440, 270)">
    <rect x="0" y="0" width="80" height="50" fill="#40826D" rx="5"/>
    <text x="40" y="22" fill="#E0E1DD" font-family="Arial" font-size="10" text-anchor="middle">Sleeve</text>
    <text x="40" y="40" fill="#E0E1DD" font-family="Arial" font-size="12" text-anchor="middle" font-weight="bold">CORE</text>
  </g>
  
  <text x="300" y="360" fill="#778DA9" font-family="Arial" font-size="11" text-anchor="middle">Kreativ software · GenAI-frygt · 90% recurring</text>
  <text x="300" y="385" fill="#415A77" font-family="Arial" font-size="9" text-anchor="middle">NasdaqGS · September 2026</text>
</svg>
